# Made in Blockbench 4.12.4
mtllib belt.mtl

o cube
v 0.5 0.75 0.5
v 0.5 0.75 -0.5
v 0.5 0 0.5
v 0.5 0 -0.5
v -0.5 0.75 -0.5
v -0.5 0.75 0.5
v -0.5 0 -0.5
v -0.5 0 0.5
vt 0 1
vt 1 1
vt 1 0.25
vt 0 0.25
vt 0 1
vt 1 1
vt 1 0.25
vt 0 0.25
vt 0 1
vt 1 1
vt 1 0.25
vt 0 0.25
vt 0 1
vt 1 1
vt 1 0.25
vt 0 0.25
vt 0 1
vt 1 1
vt 1 0
vt 0 0
vt 0 1
vt 1 1
vt 1 0
vt 0 0
vn 0 0 -1
vn 1 0 0
vn 0 0 1
vn -1 0 0
vn 0 1 0
vn 0 -1 0
usemtl none
f 7/3/1 5/2/1 2/1/1
f 4/4/1 7/3/1 2/1/1
f 4/7/2 2/6/2 1/5/2
f 3/8/2 4/7/2 1/5/2
f 3/11/3 1/10/3 6/9/3
f 8/12/3 3/11/3 6/9/3
f 8/15/4 6/14/4 5/13/4
f 7/16/4 8/15/4 5/13/4
f 1/19/5 2/18/5 5/17/5
f 6/20/5 1/19/5 5/17/5
f 4/23/6 3/22/6 8/21/6
f 7/24/6 4/23/6 8/21/6
o cube
v 0.0625 0.8062499999999999 0.3125
v 0.0625 0.8062499999999999 -0.5
v 0.0625 0.75 0.3125
v 0.0625 0.75 -0.5
v -0.125 0.8062499999999999 -0.5
v -0.125 0.8062499999999999 0.3125
v -0.125 0.75 -0.5
v -0.125 0.75 0.3125
vt 0 1
vt 0.1875 1
vt 0.1875 0.94375
vt 0 0.94375
vt 0 1
vt 0.8125 1
vt 0.8125 0.94375
vt 0 0.94375
vt 0 1
vt 0.1875 1
vt 0.1875 0.94375
vt 0 0.94375
vt 0 1
vt 0.8125 1
vt 0.8125 0.94375
vt 0 0.94375
vt 0 1
vt 0.1875 1
vt 0.1875 0.1875
vt 0 0.1875
vt 0 1
vt 0.1875 1
vt 0.1875 0.1875
vt 0 0.1875
vn 0 0 -1
vn 1 0 0
vn 0 0 1
vn -1 0 0
vn 0 1 0
vn 0 -1 0
usemtl none
f 15/27/7 13/26/7 10/25/7
f 12/28/7 15/27/7 10/25/7
f 12/31/8 10/30/8 9/29/8
f 11/32/8 12/31/8 9/29/8
f 11/35/9 9/34/9 14/33/9
f 16/36/9 11/35/9 14/33/9
f 16/39/10 14/38/10 13/37/10
f 15/40/10 16/39/10 13/37/10
f 9/43/11 10/42/11 13/41/11
f 14/44/11 9/43/11 13/41/11
f 12/47/12 11/46/12 16/45/12
f 15/48/12 12/47/12 16/45/12
o cube
v 0.0028775352228687795 0.8125 0.5049645126566509
v 0.16135938337563108 0.8125 0.1650990925179071
v 0.0028775352228687795 0.75 0.5049645126566509
v 0.16135938337563108 0.75 0.1650990925179071
v -0.008573326693740793 0.8125 0.08585816844152597
v -0.16705517484650306 0.8125 0.4257235885802697
v -0.008573326693740793 0.75 0.08585816844152597
v -0.16705517484650306 0.75 0.4257235885802697
vt 0 1
vt 0.1875 1
vt 0.1875 0.9375
vt 0 0.9375
vt 0 1
vt 0.375 1
vt 0.375 0.9375
vt 0 0.9375
vt 0 1
vt 0.1875 1
vt 0.1875 0.9375
vt 0 0.9375
vt 0 1
vt 0.375 1
vt 0.375 0.9375
vt 0 0.9375
vt 0 1
vt 0.1875 1
vt 0.1875 0.625
vt 0 0.625
vt 0 1
vt 0.1875 1
vt 0.1875 0.625
vt 0 0.625
vn 0.42261826174069944 0 -0.9063077870366499
vn 0.9063077870366499 0 0.42261826174069944
vn -0.42261826174069944 0 0.9063077870366499
vn -0.9063077870366499 0 -0.42261826174069944
vn 0 1 0
vn 0 -1 0
usemtl none
f 23/51/13 21/50/13 18/49/13
f 20/52/13 23/51/13 18/49/13
f 20/55/14 18/54/14 17/53/14
f 19/56/14 20/55/14 17/53/14
f 19/59/15 17/58/15 22/57/15
f 24/60/15 19/59/15 22/57/15
f 24/63/16 22/62/16 21/61/16
f 23/64/16 24/63/16 21/61/16
f 17/67/17 18/66/17 21/65/17
f 22/68/17 17/67/17 21/65/17
f 20/71/18 19/70/18 24/69/18
f 23/72/18 20/71/18 24/69/18
o cube
v 0.08222940045191177 0.8 0.44034581088533353
v -0.07625244770085052 0.8 0.10048039074658985
v 0.08222940045191177 0.75 0.44034581088533353
v -0.07625244770085052 0.75 0.10048039074658985
v -0.24618515777022237 0.8 0.179721314822971
v -0.08770330961746009 0.8 0.5195867349617147
v -0.24618515777022237 0.75 0.179721314822971
v -0.08770330961746009 0.75 0.5195867349617147
vt 0 1
vt 0.1875 1
vt 0.1875 0.95
vt 0 0.95
vt 0 1
vt 0.375 1
vt 0.375 0.95
vt 0 0.95
vt 0 1
vt 0.1875 1
vt 0.1875 0.95
vt 0 0.95
vt 0 1
vt 0.375 1
vt 0.375 0.95
vt 0 0.95
vt 0 1
vt 0.1875 1
vt 0.1875 0.625
vt 0 0.625
vt 0 1
vt 0.1875 1
vt 0.1875 0.625
vt 0 0.625
vn -0.42261826174069944 0 -0.9063077870366499
vn 0.9063077870366499 0 -0.42261826174069944
vn 0.42261826174069944 0 0.9063077870366499
vn -0.9063077870366499 0 0.42261826174069944
vn 0 1 0
vn 0 -1 0
usemtl none
f 31/75/19 29/74/19 26/73/19
f 28/76/19 31/75/19 26/73/19
f 28/79/20 26/78/20 25/77/20
f 27/80/20 28/79/20 25/77/20
f 27/83/21 25/82/21 30/81/21
f 32/84/21 27/83/21 30/81/21
f 32/87/22 30/86/22 29/85/22
f 31/88/22 32/87/22 29/85/22
f 25/91/23 26/90/23 29/89/23
f 30/92/23 25/91/23 29/89/23
f 28/95/24 27/94/24 32/93/24
f 31/96/24 28/95/24 32/93/24